<svg width="68" height="64" viewBox="0 0 68 64" fill="none" xmlns="http://www.w3.org/2000/svg">
<rect width="68" height="64" rx="10" fill="#F5932F"/>
<path d="M30.9 43.13V39.165C30.9 37.995 30.9867 37.02 31.16 36.24C31.3333 35.46 31.5933 34.7667 31.94 34.16C32.2867 33.51 32.7417 32.9033 33.305 32.34C33.9117 31.7333 34.6483 31.0183 35.515 30.195C36.2083 29.545 36.9017 28.895 37.595 28.245C38.2883 27.5517 38.9167 26.8583 39.48 26.165C40.0433 25.4283 40.4983 24.67 40.845 23.89C41.235 23.0667 41.43 22.1567 41.43 21.16C41.43 20.1633 41.235 19.2533 40.845 18.43C40.4983 17.5633 40.0217 16.8267 39.415 16.22C38.8083 15.6133 38.0717 15.1367 37.205 14.79C36.3817 14.4433 35.4933 14.27 34.54 14.27C32.4167 14.27 30.6833 14.9417 29.34 16.285C28.04 17.6283 27.26 19.3833 27 21.55L20.37 20.9C20.9333 17.13 22.4933 14.1833 25.05 12.06C27.65 9.89333 30.8567 8.81 34.67 8.81C36.49 8.81 38.18 9.09166 39.74 9.655C41.3433 10.175 42.73 10.955 43.9 11.995C45.07 12.9917 45.98 14.2483 46.63 15.765C47.3233 17.2383 47.67 18.9283 47.67 20.835C47.67 22.4817 47.4317 23.9333 46.955 25.19C46.4783 26.4033 45.8067 27.5517 44.94 28.635L41.04 32.665L40.39 33.25C39.6967 33.9 39.1333 34.4633 38.7 34.94C38.31 35.3733 37.985 35.85 37.725 36.37C37.5083 36.8467 37.3567 37.3883 37.27 37.995C37.1833 38.6017 37.14 39.36 37.14 40.27V43.13H30.9ZM29.665 52.1C29.665 50.93 30.0767 49.9333 30.9 49.11C31.7667 48.2433 32.785 47.81 33.955 47.81C35.125 47.81 36.1217 48.2433 36.945 49.11C37.8117 49.9333 38.245 50.93 38.245 52.1C38.245 53.27 37.8117 54.2883 36.945 55.155C36.1217 55.9783 35.125 56.39 33.955 56.39C32.785 56.39 31.7667 55.9783 30.9 55.155C30.0767 54.2883 29.665 53.27 29.665 52.1Z" fill="white"/>
</svg>
